<?xml version="1.0" standalone="no"?>
<!DOCTYPE svg PUBLIC "-//W3C//DTD SVG 20010904//EN"
 "http://www.w3.org/TR/2001/REC-SVG-20010904/DTD/svg10.dtd">
<svg version="1.0" xmlns="http://www.w3.org/2000/svg"
 width="240.000000pt" height="240.000000pt" viewBox="0 0 240.000000 240.000000"
 preserveAspectRatio="xMidYMid meet">
<metadata>
Created by potrace 1.11, written by Peter Selinger 2001-2013
</metadata>
<g transform="translate(0.000000,240.000000) scale(0.100000,-0.100000)"
fill="#000000" stroke="none">
<path d="M1980 1845 c-39 -12 -212 -98 -250 -125 -14 -9 -65 -39 -115 -65 -49
-27 -114 -64 -144 -82 -66 -42 -88 -51 -148 -58 -27 -4 -59 -8 -73 -11 -14 -2
-72 -6 -130 -9 -155 -8 -177 -12 -239 -41 -88 -41 -111 -50 -183 -68 -82 -20
-150 -20 -207 0 -36 12 -50 13 -80 2 -20 -6 -65 -11 -101 -11 -57 2 -62 0 -37
-10 15 -6 26 -16 24 -21 -5 -14 -67 -19 -67 -5 0 5 -5 7 -11 3 -16 -10 10 -24
46 -24 28 -1 27 -3 -22 -28 -38 -18 -53 -32 -53 -46 0 -11 -19 -39 -41 -62
-69 -70 -39 -70 34 1 38 36 74 65 80 65 8 0 7 -4 -1 -12 -7 -7 -12 -20 -12
-30 0 -9 -11 -23 -24 -30 -14 -7 -35 -29 -48 -48 -13 -19 -35 -41 -50 -49 -24
-14 -29 -13 -62 10 -20 13 -36 30 -36 37 0 6 -7 12 -16 12 -15 0 -14 -3 2 -27
10 -16 23 -39 30 -52 30 -57 67 -54 168 12 99 66 116 75 99 56 -16 -16 -17
-33 -1 -23 7 4 8 3 4 -5 -4 -6 -11 -9 -16 -6 -17 10 -149 -70 -136 -82 4 -4
64 25 76 37 3 3 17 13 32 22 23 15 27 15 32 2 5 -12 11 -12 43 5 21 11 54 35
73 54 35 33 153 117 166 117 3 0 4 -6 1 -12 -3 -7 -12 -30 -21 -50 -21 -48
-13 -50 10 -2 11 23 22 33 31 30 16 -6 41 15 68 57 9 15 22 27 27 27 5 0 0
-16 -12 -35 -12 -19 -17 -35 -12 -35 6 0 13 6 15 13 5 12 11 -64 9 -112 -1
-13 -12 -35 -24 -48 -23 -25 -92 -63 -114 -63 -14 0 -64 -39 -62 -48 8 -39
-46 -165 -94 -220 -19 -22 -27 -40 -23 -52 5 -14 0 -21 -17 -25 -13 -4 -31
-17 -40 -30 -14 -19 -15 -27 -5 -49 12 -26 24 -32 42 -18 28 20 90 111 127
183 22 45 57 98 77 119 36 38 181 118 181 101 0 -13 -67 -64 -116 -89 -41 -21
-58 -47 -70 -111 -3 -14 -21 -52 -40 -86 -18 -34 -34 -69 -34 -78 0 -10 -7
-17 -15 -17 -28 0 -15 -26 27 -53 36 -23 38 -22 38 16 0 39 76 168 123 210 18
15 54 39 82 54 27 14 69 40 92 58 23 18 67 45 97 61 42 22 61 40 83 79 41 71
95 99 182 96 36 -2 120 -3 186 -3 116 -1 124 1 255 45 127 43 136 44 163 30
19 -9 42 -12 67 -8 24 4 59 0 96 -11 33 -9 72 -18 87 -19 27 -3 127 -63 127
-77 0 -3 22 -33 50 -66 42 -51 55 -74 59 -113 3 -22 111 -61 111 -41 0 14
-101 177 -112 181 -20 7 -55 48 -82 94 -22 39 -39 54 -81 72 -67 30 -75 42
-30 51 40 7 60 -3 124 -64 24 -22 44 -52 47 -70 4 -17 11 -30 17 -29 11 2 13
-4 16 -38 1 -12 80 -75 95 -75 29 0 -49 180 -92 214 -24 19 -54 51 -105 111
-25 30 -26 30 -121 27 l-96 -2 6 112 c6 107 19 158 45 173 19 13 27 -9 32 -85
4 -53 2 -79 -7 -90 -11 -12 -11 -21 0 -47 17 -40 56 -53 93 -30 23 14 41 44
133 220 11 20 23 64 27 97 6 48 12 63 34 80 15 12 27 28 27 36 0 18 -9 18 -32
-3 -17 -15 -18 -15 -18 0 0 21 -13 22 -29 3 -9 -11 -25 -7 -89 25 -64 33 -86
39 -132 37 -30 -1 -71 -7 -90 -13z m-1590 -709 c0 -2 -19 -19 -42 -36 l-43
-32 40 36 c40 36 45 39 45 32z"/>
</g>
</svg>
